<?xml version="1.0" standalone="no"?>
<!DOCTYPE svg PUBLIC "-//W3C//DTD SVG 20010904//EN"
 "http://www.w3.org/TR/2001/REC-SVG-20010904/DTD/svg10.dtd">
<svg version="1.0" xmlns="http://www.w3.org/2000/svg"
 width="700.000000pt" height="700.000000pt" viewBox="0 0 700.000000 700.000000"
 preserveAspectRatio="xMidYMid meet">
<metadata>
Created by potrace 1.11, written by Peter Selinger 2001-2013
</metadata>
<g transform="translate(0.000000,700.000000) scale(0.100000,-0.100000)"
fill="#000000" stroke="none">
<path d="M3288 6245 c-1 -1 -34 -6 -73 -10 -618 -61 -1216 -349 -1661 -800
-254 -257 -419 -503 -582 -866 -44 -97 -128 -364 -146 -459 -2 -14 -7 -36 -10
-50 -6 -27 -13 -63 -22 -120 -3 -19 -7 -46 -10 -60 -18 -106 -26 -482 -12
-625 10 -103 38 -283 48 -311 5 -13 8 -24 5 -24 -2 0 1 -15 6 -32 5 -18 12
-45 14 -60 3 -15 27 -94 54 -175 139 -419 355 -769 665 -1078 360 -359 783
-600 1266 -720 131 -32 160 -38 245 -50 22 -4 51 -8 65 -11 110 -19 462 -26
617 -11 264 24 609 111 818 207 361 164 602 328 850 575 236 235 386 443 529
730 104 210 168 390 222 630 15 64 44 245 51 312 15 147 8 535 -11 638 -2 11
-7 42 -10 68 -4 27 -9 59 -12 70 -2 12 -7 36 -10 52 -18 104 -78 303 -131 440
-35 90 -145 319 -185 385 -25 41 -148 230 -160 245 -5 6 -40 51 -80 100 -68
86 -257 280 -344 355 -379 325 -865 550 -1354 625 -52 8 -111 17 -130 21 -36
6 -505 15 -512 9z m476 -512 c293 -38 516 -106 764 -234 492 -253 883 -696
1076 -1220 33 -90 77 -244 89 -314 3 -16 8 -40 11 -53 34 -154 42 -492 16
-692 -65 -498 -291 -951 -650 -1303 -229 -225 -474 -383 -767 -497 -101 -39
-286 -93 -362 -106 -18 -3 -43 -8 -55 -10 -28 -5 -86 -13 -176 -23 -79 -9
-411 -7 -470 4 -19 3 -66 10 -105 16 -491 75 -988 351 -1315 732 -47 54 -90
104 -96 110 -30 34 -177 267 -216 344 -110 213 -200 496 -224 703 -3 30 -9 59
-12 64 -12 20 -9 406 4 515 88 748 536 1390 1214 1740 167 86 418 173 570 197
14 2 36 7 50 10 14 3 43 8 65 11 22 2 67 8 100 12 100 13 373 9 489 -6z"/>
<path d="M4363 4539 c-23 -4 -75 -23 -116 -42 -139 -64 -246 -197 -282 -349
-73 -310 160 -612 481 -624 296 -11 540 233 529 528 -10 269 -223 483 -490
493 -44 1 -99 -1 -122 -6z"/>
<path d="M2405 4522 c-93 -27 -165 -69 -230 -136 -229 -235 -178 -620 104
-786 159 -93 345 -95 506 -4 69 39 96 62 146 124 126 156 146 372 51 554 -30
58 -131 164 -186 195 -80 45 -139 62 -236 67 -71 3 -110 0 -155 -14z"/>
</g>
</svg>
